<svg width="32" height="32" viewBox="0 0 32 32" fill="none" xmlns="http://www.w3.org/2000/svg">
<path d="M21.3333 10.6667C23.455 10.6667 25.4899 11.5095 26.9901 13.0098C28.4904 14.5101 29.3333 16.5449 29.3333 18.6667V28H24V18.6667C24 17.9594 23.719 17.2811 23.2189 16.781C22.7188 16.2809 22.0405 16 21.3333 16C20.626 16 19.9478 16.2809 19.4477 16.781C18.9476 17.2811 18.6666 17.9594 18.6666 18.6667V28H13.3333V18.6667C13.3333 16.5449 14.1761 14.5101 15.6764 13.0098C17.1767 11.5095 19.2116 10.6667 21.3333 10.6667Z" stroke="#A22C2C" stroke-width="4" stroke-linecap="round" stroke-linejoin="round"/>
<path d="M7.99996 12H2.66663V28H7.99996V12Z" stroke="#A22C2C" stroke-width="4" stroke-linecap="round" stroke-linejoin="round"/>
<path d="M5.33329 8C6.80605 8 7.99996 6.80609 7.99996 5.33333C7.99996 3.86057 6.80605 2.66666 5.33329 2.66666C3.86053 2.66666 2.66663 3.86057 2.66663 5.33333C2.66663 6.80609 3.86053 8 5.33329 8Z" stroke="#A22C2C" stroke-width="4" stroke-linecap="round" stroke-linejoin="round"/>
</svg>
