<?xml version="1.0" standalone="no"?>
<!DOCTYPE svg PUBLIC "-//W3C//DTD SVG 20010904//EN"
 "http://www.w3.org/TR/2001/REC-SVG-20010904/DTD/svg10.dtd">
<svg version="1.0" xmlns="http://www.w3.org/2000/svg"
 width="50px" height="50px" viewBox="0 0 500.000000 500.000000"
 preserveAspectRatio="xMidYMid meet">

<g transform="translate(0.000000,500.000000) scale(0.100000,-0.100000)"
fill="#A12C2C" stroke="#A12C2C" stroke-width="80" enable-background="True">
<path d="M1225 3780 l-1220 -1220 1248 -1248 1247 -1247 1247 1247 1248 1248
-1220 1220 -1220 1220 -55 0 -55 0 -1220 -1220z m2460 -40 l1180 -1180 -1183
-1183 -1182 -1182 -1182 1182 -1183 1183 1180 1180 c649 649 1182 1180 1185
1180 3 0 536 -531 1185 -1180z"/>
<path d="M2174 4307 c-382 -279 -651 -581 -852 -957 -120 -225 -234 -553 -277
-801 l-7 -36 67 -13 c36 -7 68 -11 70 -8 2 2 14 49 26 103 82 383 255 756 488
1055 84 108 261 292 371 384 104 88 180 146 191 146 5 0 9 -347 9 -771 l0
-771 -415 4 -415 4 0 -73 0 -73 308 0 c170 0 357 -3 415 -7 l107 -6 0 -864 0
-863 70 0 70 0 0 865 0 865 95 0 95 0 0 -865 0 -865 75 0 76 0 92 62 c213 142
429 323 578 483 305 328 473 691 497 1078 l7 117 -72 0 -73 0 0 -53 c0 -211
-84 -495 -210 -706 -153 -258 -425 -536 -725 -743 -44 -30 -86 -58 -92 -62
-10 -6 -13 137 -13 698 l0 706 420 0 420 0 0 75 0 75 -420 0 -420 0 0 935 0
935 -70 0 -70 0 0 -865 0 -866 -92 3 -93 3 -3 863 -2 862 -78 -1 c-77 -1 -77
-1 -148 -52z"/>
</g>
</svg>
